HIERARCHY
ROOT Hips
{
	OFFSET -0.001795 -0.223333 0.028219
	CHANNELS 6 Xposition Yposition Zposition Zrotation Yrotation Xrotation 
	JOINT LeftUpLeg
	{
		OFFSET 0.069520 -0.091406 -0.006815
		CHANNELS 3 Zrotation Yrotation Xrotation
		JOINT LeftLeg
		{
			OFFSET 0.034277 -0.375199 -0.004496
			CHANNELS 3 Zrotation Yrotation Xrotation
			JOINT LeftFoot
			{
				OFFSET -0.013596 -0.397961 -0.043693
				CHANNELS 3 Zrotation Yrotation Xrotation
				JOINT LeftToe
				{
					OFFSET 0.026358 -0.055791 0.119288
					CHANNELS 3 Zrotation Yrotation Xrotation
					End Site
					{
						OFFSET 0.000000 0.000000 0.000000
					}
				}
			}
		}
	}
	JOINT RightUpLeg
	{
		OFFSET -0.067670 -0.090522 -0.004320
		CHANNELS 3 Zrotation Yrotation Xrotation
		JOINT RightLeg
		{
			OFFSET -0.038290 -0.382569 -0.008850
			CHANNELS 3 Zrotation Yrotation Xrotation
			JOINT RightFoot
			{
				OFFSET 0.015774 -0.398415 -0.042312
				CHANNELS 3 Zrotation Yrotation Xrotation
				JOINT RightToe
				{
					OFFSET -0.025372 -0.048144 0.123348
					CHANNELS 3 Zrotation Yrotation Xrotation
					End Site
					{
						OFFSET 0.000000 0.000000 0.000000
					}
				}
			}
		}
	}
	JOINT Spine
	{
		OFFSET -0.002533 0.108963 -0.026696
		CHANNELS 3 Zrotation Yrotation Xrotation
		JOINT Spine1
		{
			OFFSET 0.005487 0.135180 0.001092
			CHANNELS 3 Zrotation Yrotation Xrotation
			JOINT Spine2
			{
				OFFSET 0.001457 0.052922 0.025425
				CHANNELS 3 Zrotation Yrotation Xrotation
				JOINT Neck
				{
					OFFSET -0.002778 0.213870 -0.042857
					CHANNELS 3 Zrotation Yrotation Xrotation
					JOINT Head
					{
						OFFSET 0.005152 0.064970 0.051349
						CHANNELS 3 Zrotation Yrotation Xrotation
						End Site
						{
							OFFSET 0.000000 0.000000 0.000000
						}
					}
				}
				JOINT LeftShoulder
				{
					OFFSET 0.078845 0.121749 -0.034090
					CHANNELS 3 Zrotation Yrotation Xrotation
					JOINT LeftArm
					{
						OFFSET 0.090977 0.030469 -0.008868
						CHANNELS 3 Zrotation Yrotation Xrotation
						JOINT LeftForeArm
						{
							OFFSET 0.259612 -0.012772 -0.027456
							CHANNELS 3 Zrotation Yrotation Xrotation
							JOINT LeftHand
							{
								OFFSET 0.249234 0.008986 -0.001171
								CHANNELS 3 Zrotation Yrotation Xrotation
								End Site
								{
									OFFSET 0.000000 0.000000 0.000000
								}
							}
						}
					}
				}
				JOINT RightShoulder
				{
					OFFSET -0.081759 0.118833 -0.038615
					CHANNELS 3 Zrotation Yrotation Xrotation
					JOINT RightArm
					{
						OFFSET -0.096012 0.032551 -0.009143
						CHANNELS 3 Zrotation Yrotation Xrotation
						JOINT RightForeArm
						{
							OFFSET -0.253742 -0.013329 -0.021401
							CHANNELS 3 Zrotation Yrotation Xrotation
							JOINT RightHand
							{
								OFFSET -0.255298 0.007772 -0.005559
								CHANNELS 3 Zrotation Yrotation Xrotation
								End Site
								{
									OFFSET 0.000000 0.000000 0.000000
								}
							}
						}
					}
				}
			}
		}
	}
}
MOTION
Frames: 7
Frame Time: 0.050000
0.007722 0.948606 -0.025947 -1.512338 2.050254 -2.428766 8.679810 0.009004 10.353253 -5.606302 0.428291 -9.630105 5.167191 13.778300 16.341933 0.000000 0.000000 0.000000 -5.295567 -0.415788 8.337778 2.348059 -0.416859 -7.780343 -3.678513 -12.627524 17.977703 0.000000 0.000000 0.000000 -3.763299 -0.015424 1.423754 4.751742 -0.554306 -23.696804 1.514860 0.818524 27.520432 1.917483 1.062095 -29.477757 0.000000 0.000000 0.000000 -10.993304 -7.084584 2.404430 -55.336679 -38.030928 9.406931 -14.588875 -86.997536 20.414914 0.000000 0.000000 0.000000 -7.445289 20.852346 5.724309 41.591163 60.543833 17.160527 -89.337974 62.587398 -54.926763 0.000000 0.000000 0.000000 
0.007743 0.948689 -0.026609 -1.505013 2.780160 -2.133444 8.511968 -0.014615 9.889346 -5.217462 0.404368 -9.720742 4.862327 13.389512 16.236742 0.000000 0.000000 0.000000 -5.205892 -0.432274 8.241264 2.304872 -0.426843 -8.046157 -4.027704 -13.130937 18.248750 0.000000 0.000000 0.000000 -4.176739 -0.006922 1.111913 4.877267 -0.588151 -23.463708 1.306739 0.831366 27.284966 2.622723 0.794313 -29.868188 0.000000 0.000000 0.000000 -10.980981 -6.618566 2.110443 -56.687828 -35.678972 8.478876 -40.377733 -83.486187 42.483458 0.000000 0.000000 0.000000 -7.878968 20.826329 5.629512 42.124257 61.387804 18.071283 -88.659145 60.978746 -52.651133 0.000000 0.000000 0.000000 
0.007827 0.948892 -0.027204 -1.533166 2.923216 -1.600175 8.339695 -0.020745 9.128853 -4.872256 0.397452 -9.541869 4.870380 13.407191 16.221587 0.000000 0.000000 0.000000 -5.193699 -0.409492 7.902546 2.379752 -0.442004 -8.517827 -4.080891 -13.226245 18.543429 0.000000 0.000000 0.000000 -4.268265 0.002139 0.816259 4.884857 -0.565476 -23.774169 1.331611 0.805187 27.748208 2.657364 0.818951 -30.295102 0.000000 0.000000 0.000000 -11.596122 -6.110647 1.863021 -57.091420 -31.876604 6.465220 -49.928665 -76.513293 46.056080 0.000000 0.000000 0.000000 -8.106969 20.716836 5.546880 43.946668 63.121729 20.036085 -90.880086 57.711542 -50.983661 0.000000 0.000000 0.000000 
0.007955 0.948580 -0.027738 -1.446632 3.329912 -0.929888 8.364310 -0.057087 8.501751 -5.058729 0.386073 -9.925649 4.699905 13.198211 16.247312 0.000000 0.000000 0.000000 -5.011389 -0.394334 7.422768 1.968385 -0.439661 -8.909906 -4.337244 -13.593046 18.693941 0.000000 0.000000 0.000000 -4.447992 0.012552 0.585877 5.124803 -0.644279 -23.335938 0.958192 0.735233 27.276816 2.857812 0.747857 -30.231156 0.000000 0.000000 0.000000 -12.011516 -5.381196 1.465866 -57.113572 -27.562788 4.243254 -52.620367 -68.852987 42.483461 0.000000 0.000000 0.000000 -7.726989 20.659737 5.622927 45.867802 64.365884 21.980914 -93.424641 54.967365 -50.013070 0.000000 0.000000 0.000000 
0.008139 0.948667 -0.028314 -1.582987 3.104804 -0.532664 8.358646 -0.060269 8.166106 -4.867143 0.384353 -10.107459 4.849174 13.403591 16.360556 0.000000 0.000000 0.000000 -4.852461 -0.351854 6.731716 1.909546 -0.427208 -8.608094 -4.276777 -13.511708 18.659452 0.000000 0.000000 0.000000 -4.844352 0.022372 0.690734 5.775783 -0.803445 -23.451998 1.106221 0.898392 27.297058 3.171805 0.601876 -30.401879 0.000000 0.000000 0.000000 -12.964560 -4.902493 1.200238 -56.828913 -23.210689 1.973494 -55.863195 -61.982806 39.927366 0.000000 0.000000 0.000000 -7.348607 20.295992 5.601453 48.217142 64.920619 23.768761 -94.842461 52.741771 -48.644413 0.000000 0.000000 0.000000 
0.008348 0.948458 -0.028949 -1.679238 3.339409 -0.148617 8.804086 -0.121044 7.893392 -5.468655 0.377364 -10.530308 4.723384 13.251816 16.432445 0.000000 0.000000 0.000000 -4.752875 -0.325775 6.225197 1.946805 -0.426825 -8.472585 -4.432395 -13.726943 18.681607 0.000000 0.000000 0.000000 -5.008021 0.029559 0.691432 6.120875 -0.874750 -23.600552 0.858214 0.651572 27.452453 3.237347 0.553964 -30.462382 0.000000 0.000000 0.000000 -13.681915 -4.372421 0.930933 -56.295029 -20.408397 0.520549 -59.018405 -58.751904 39.817250 0.000000 0.000000 0.000000 -5.946379 20.202126 5.848902 49.886276 63.738091 23.989314 -97.646928 53.124939 -51.006793 0.000000 0.000000 0.000000 
0.008641 0.948563 -0.029459 -1.806576 3.411218 0.235458 8.873277 -0.140009 7.692380 -5.384810 0.364798 -11.017053 4.694774 13.240388 16.599089 0.000000 0.000000 0.000000 -4.619767 -0.305104 5.826169 1.949379 -0.430088 -8.568135 -4.472697 -13.791310 18.846146 0.000000 0.000000 0.000000 -5.181464 0.035845 0.285830 6.362004 -0.955238 -23.298376 1.018778 0.490278 27.261567 2.500430 0.892204 -30.012845 0.000000 0.000000 0.000000 -13.641223 -3.667441 0.606416 -55.172948 -19.921514 0.249931 -64.093698 -61.012186 45.230728 0.000000 0.000000 0.000000 -4.671025 19.532472 5.907705 52.553408 60.661414 23.634379 -100.098084 57.199286 -57.235430 0.000000 0.000000 0.000000 
